<svg width="538" height="550" fill="none" xmlns="http://www.w3.org/2000/svg"><g clip-path="url(#clip0_1644_16782)"><circle opacity=".5" cx="247" cy="123" r="200" fill="#FFD43B"/><circle opacity=".5" cx="245" cy="123" r="180" fill="url(#paint0_linear_1644_16782)"/><path opacity=".5" d="M341.889 45.595c3.005-3.005 10.872-5.746 13.966-2.652 3.182 3.182.353 10.96-2.652 13.965L342.861 67.25l6.718 24.395c.354 1.414-.088 2.917-1.061 3.89l-4.949 4.949c-.973.972-2.564.795-3.182-.354l-10.872-19.533-9.016 9.015 1.238 9.016a1.784 1.784 0 0 1-.531 1.591l-3.712 3.712c-.707.707-1.768.707-2.475 0l-.265-.265-6.983-12.64-12.551-6.894-.353-.354c-.619-.618-.708-1.767 0-2.474l3.712-3.713c.442-.442 1.061-.53 1.679-.442l8.927 1.15 9.016-9.016-19.445-10.784c-1.149-.618-1.415-2.298-.442-3.27l4.949-4.95c.973-.972 2.564-1.326 3.978-.972l24.307 6.63 10.341-10.342z" fill="#FAB005"/><path d="M473.489 199.75c0 17.75-14.5 32-32 32h-92c-20 0-36-16-36-36 0-15.5 10-29 24-33.75v-2.25c0-22 17.75-40 40-40 14.75 0 27.75 8.25 34.5 20.25 3.75-2.75 8.5-4.25 13.5-4.25 13.25 0 24 10.75 24 24 0 3.25-.75 6-1.75 8.75 14.75 3 25.75 16 25.75 31.25zM167.489 98.75c0 17.75-14.5 32-32 32h-92c-20 0-36-16-36-36 0-15.5 10-29 24-33.75v-2.25c0-22 17.75-40 40-40 14.75 0 27.75 8.25 34.5 20.25 3.75-2.75 8.5-4.25 13.5-4.25 13.25 0 24 10.75 24 24 0 3.25-.75 6-1.75 8.75 14.75 3 25.75 16 25.75 31.25z" fill="#fff"/><g clip-path="url(#clip1_1644_16782)"><path d="M284 454c-5.523 0-10 4.477-10 10v28c0 5.523 4.477 10 10 10h244c5.523 0 10-4.477 10-10v-28c0-5.523-4.477-10-10-10H284z" fill="#515F7C"/><path d="M368.455 479.68a4.456 4.456 0 0 1-4.455-4.456v-2.814a4.25 4.25 0 0 0-4.25-4.25h-3.5a4.25 4.25 0 0 0-4.25 4.25v2.814c0 9.089 7.367 16.456 16.455 16.456h27.09c9.088 0 16.455-7.367 16.455-16.456v-2.814a4.25 4.25 0 0 0-4.25-4.25h-3.5a4.25 4.25 0 0 0-4.25 4.25v2.814a4.456 4.456 0 0 1-4.455 4.456h-27.09zM306 454h16v48h-16zM442 454h16v48h-16z" fill="#193154"/><path opacity=".3" fill="#001D40" d="M320 454h2v48h-2zM456 454h2v48h-2z"/><path opacity=".3" d="M496 502h32c5.523 0 10-4.477 10-10v-28c0-5.523-4.477-10-10-10h-32c5.523 0 10 4.477 10 10v28c0 5.523-4.477 10-10 10z" fill="#193154"/></g><g clip-path="url(#clip2_1644_16782)"><path d="M259 406c-5.523 0-10 4.477-10 10v28c0 5.523 4.477 10 10 10h244c5.523 0 10-4.477 10-10v-28c0-5.523-4.477-10-10-10H259z" fill="#8991A6"/><path d="M343.455 431.68a4.456 4.456 0 0 1-4.455-4.456v-2.814a4.25 4.25 0 0 0-4.25-4.25h-3.5a4.25 4.25 0 0 0-4.25 4.25v2.814c0 9.089 7.367 16.456 16.455 16.456h27.09c9.088 0 16.455-7.367 16.455-16.456v-2.814a4.25 4.25 0 0 0-4.25-4.25h-3.5a4.25 4.25 0 0 0-4.25 4.25v2.814a4.456 4.456 0 0 1-4.455 4.456h-27.09zM281 406h16v48h-16zM417 406h16v48h-16z" fill="#515F7C"/><path opacity=".3" fill="#193154" d="M295 406h2v48h-2zM431 406h2v48h-2zM471 454h32c5.523 0 10-4.477 10-10v-28c0-5.523-4.477-10-10-10h-32c5.523 0 10 4.477 10 10v28c0 5.523-4.477 10-10 10z"/></g><g clip-path="url(#clip3_1644_16782)"><path d="M268 502c-5.523 0-10 4.477-10 10v28c0 5.523 4.477 10 10 10h244c5.523 0 10-4.477 10-10v-28c0-5.523-4.477-10-10-10H268z" fill="#8991A6"/><path d="M352.455 527.68a4.456 4.456 0 0 1-4.455-4.456v-2.814a4.25 4.25 0 0 0-4.25-4.25h-3.5a4.25 4.25 0 0 0-4.25 4.25v2.814c0 9.089 7.367 16.456 16.455 16.456h27.09c9.088 0 16.455-7.367 16.455-16.456v-2.814a4.25 4.25 0 0 0-4.25-4.25h-3.5a4.25 4.25 0 0 0-4.25 4.25v2.814a4.456 4.456 0 0 1-4.455 4.456h-27.09zM290 502h16v48h-16zM426 502h16v48h-16z" fill="#515F7C"/><path opacity=".3" fill="#193154" d="M304 502h2v48h-2zM440 502h2v48h-2zM480 550h32c5.523 0 10-4.477 10-10v-28c0-5.523-4.477-10-10-10h-32c5.523 0 10 4.477 10 10v28c0 5.523-4.477 10-10 10z"/></g><path fill-rule="evenodd" clip-rule="evenodd" d="M391 208c-5.523 0-10 4.477-10 10v8h-16v-8c0-14.359 11.641-26 26-26h40c14.359 0 26 11.641 26 26v8h-16v-8c0-5.523-4.477-10-10-10h-40z" fill="#001D40"/><rect x="282" y="220" width="256" height="186" rx="24" fill="#193154"/><path d="M430.434 356.203l-4.004-1.839-.128-1.504c.094-1.091-.481-2.078-1.503-2.547l-6.049-2.779c-1.022-.47-2.151-.266-2.926.513l-1.15.916-4.089-1.878c-1.278-.588-2.814.048-3.407 1.323l-5.416 11.646a2.507 2.507 0 0 0 1.233 3.352l19.85 9.119a2.535 2.535 0 0 0 3.367-1.239l5.501-11.607c.593-1.275-.001-2.889-1.279-3.476zm-15.732 8.042c-2.471-1.135-3.481-4.076-2.374-6.456a4.868 4.868 0 0 1 6.485-2.385c2.385 1.095 3.521 3.99 2.374 6.455-1.106 2.38-4.1 3.481-6.485 2.386zm7.418-22.178c.137.372.398.699.739.855.426.196.846.182 1.22.045l12.131-4.744c3.532-1.37 5.259-5.529 3.685-9.037-1.476-3.051-5.042-4.276-8.284-3.084l-1.162.498-.372-1.202c-1.187-3.228-4.437-5.133-7.731-4.274-3.708 1.082-5.776 5.085-4.537 8.646l4.311 12.297zm39.496-4.451l-13.603-3.876c-1.357-.417-2.808.258-3.44 1.618l-4.23 9.096c-.386-.28-.773-.561-1.284-.796-2.982-1.37-6.237-.595-7.264 1.615-1.068 2.295.573 5.215 3.469 6.546 3.067 1.409 6.283.719 7.31-1.491l4.394-9.227 10.214 2.938-1.943 3.956c-.387-.28-.773-.561-1.284-.796-2.982-1.369-6.237-.595-7.265 1.615-1.067 2.295.613 5.131 3.509 6.461 3.067 1.409 6.283.72 7.311-1.491l5.692-12.241c.751-1.615-.019-3.516-1.586-3.927zm-12.974 31.903l-4.771-2.191 6.756-6.079c.532-.478.678-1.236.325-1.811-.314-.66-1.035-.888-1.704-.783l-15.332 4.512c-.623.229-1.07.746-1.052 1.374-.067.588.286 1.163.883 1.437l4.685 2.152-6.795 6.164c-.532.478-.678 1.236-.325 1.811.177.287.393.49.734.646.255.118.635.189.97.136l15.332-4.511c.623-.23 1.07-.746 1.052-1.374.067-.588-.247-1.248-.758-1.483zM350.054 348.624c-3.089-1.125-5.346.375-7.039 1.594-1.598 1.031-2.256 1.313-3.005 1.031-.748-.281-1.027-.843-1.487-2.718-.276-1.219-.643-2.813-1.669-4.032.283-.281.471-.562.66-.843.933.937 2.149 1.593 3.93 1.593 3.094 0 4.699-2.343 5.737-3.937 1.039-1.594 1.51-2.062 2.166-2.062 1.219 0 2.254-.938 2.261-2.25.005-1.219-1.021-2.25-2.24-2.25-3.188 0-4.793 2.437-5.831 4.031-1.038 1.5-1.416 1.968-2.072 1.968-1.687 0-3.536-5.718-9.143-9.468l1.702-3.281c3.095-.188 5.638-2.813 5.653-6 .015-3.282-2.691-6-5.972-6a6.015 6.015 0 0 0-6.028 6 6.715 6.715 0 0 0 .922 3.375l-1.703 3.375a18.646 18.646 0 0 0-5.247-.75c-1.969 0-3.751.281-5.347.75l-1.672-3.375c.661-.938 1.041-2.157 1.047-3.375.015-3.282-2.691-6-5.972-6a6.015 6.015 0 0 0-6.028 6c-.015 3.187 2.411 5.812 5.597 6l1.579 3.281c-5.643 3.75-7.544 9.468-9.138 9.468-.656 0-1.123-.468-2.053-1.968-1.118-1.594-2.7-4.031-5.794-4.031-1.313 0-2.255 1.031-2.26 2.25-.007 1.312.927 2.25 2.239 2.25.656 0 1.029.468 1.959 2.062 1.118 1.594 2.607 3.937 5.888 3.937 1.688 0 2.91-.656 3.851-1.593.187.281.373.562.653.843-1.037 1.219-1.419 2.813-1.706 4.032-.478 1.875-.762 2.437-1.513 2.718-.751.282-1.406 0-2.995-1.031-1.682-1.219-3.925-2.719-7.024-1.594-1.127.469-1.79 1.782-1.326 2.907.463 1.218 1.773 1.781 2.9 1.312.751-.281 1.313 0 2.995 1.031 1.215.938 2.804 1.969 4.866 1.969.657 0 1.407-.094 2.158-.375 3.1-1.219 3.768-3.844 4.246-5.906.191-.75.381-1.313.571-1.688a21.198 21.198 0 0 0 5.797 3.188c-.953 3.469-3.039 8.437-5.664 8.437-1.312 0-2.254 1.032-2.26 2.25-.006 1.313.927 2.25 2.24 2.25 6.187 0 9.131-8.25 10.087-12.093.656.093 1.218.093 1.968.093.656 0 1.219 0 1.876-.093 1.013 3.843 3.787 12.093 10.069 12.093 1.218 0 2.254-.937 2.26-2.156.006-1.312-1.021-2.344-2.24-2.344-2.625 0-4.758-4.968-5.679-8.437a21.443 21.443 0 0 0 5.827-3.188c.186.375.371.938.555 1.688.459 2.062 1.197 4.687 4.191 5.906a6.144 6.144 0 0 0 2.155.375c2.062 0 3.661-1.031 4.977-1.969 1.599-1.031 2.163-1.312 2.911-1.031 1.123.469 2.438-.094 2.913-1.312.474-1.125-.083-2.438-1.299-2.907zM309.67 323.5a1.473 1.473 0 0 1-1.493-1.5c.003-.75.663-1.5 1.507-1.5.75 0 1.496.75 1.493 1.5-.004.843-.757 1.5-1.507 1.5zm24.014-3c.75 0 1.496.75 1.493 1.5-.004.843-.757 1.5-1.507 1.5a1.473 1.473 0 0 1-1.493-1.5c.003-.75.663-1.5 1.507-1.5zM471 273h55v46h-55z" fill="#FFD43B"/><path fill="#fff" d="M471 289h55v7h-55zM471 312h55v7h-55z"/><circle cx="354.899" cy="272.899" r="26.046" transform="rotate(-75 354.899 272.899)" fill="#fff"/><path d="M360.241 271.177c.493 1.35.826 2.626 1.137 3.844l-10.842 4.016c-.546-1.13-1.114-2.32-1.607-3.67-.471-1.292-.804-2.568-1.137-3.844l10.842-4.017c.567 1.19 1.135 2.379 1.607 3.671zm7.477-7.036a14.346 14.346 0 0 1 1.9 3.562c.493 1.35.767 2.648.844 3.952l-7.208 2.671c-.312-1.218-.666-2.553-1.138-3.844-.472-1.292-1.039-2.481-1.607-3.671l7.209-2.67zm-1.272-1.662l-6.857 2.541c-1.937-3.482-4.267-6.218-6.461-7.671 5.022-.461 9.973 1.437 13.318 5.13zm-8.733 3.235l-10.373 3.843a26.439 26.439 0 0 1-.433-6.104c.13-1.648.41-2.885.878-3.791.43-.826.872-1.257 1.341-1.43.41-.152 1.023-.113 1.882.235.939.386 1.949 1.145 3.108 2.315a26.225 26.225 0 0 1 3.597 4.932zm-19.106 7.078c.172-4.995 2.722-9.673 6.844-12.599-.737 2.539-.751 6.143.013 10.059l-6.857 2.54zm7.309-.575c.333 1.277.666 2.553 1.138 3.845.471 1.291 1.06 2.539 1.606 3.67l-7.208 2.671c-.781-1.044-1.348-2.234-1.841-3.584-.472-1.292-.805-2.568-.904-3.931l7.209-2.671zm9.16 13.603a25.813 25.813 0 0 1-3.62-4.991l10.374-3.843a26 26 0 0 1 .454 6.164c-.13 1.647-.41 2.884-.878 3.791-.43.826-.893 1.197-1.362 1.371-.41.152-1.002.171-1.861-.177-.939-.386-1.948-1.145-3.107-2.315zm.987 3.433c-5.021.461-9.973-1.437-13.339-5.189l6.857-2.54c1.958 3.54 4.288 6.276 6.482 7.729zm7.678-2.844c.736-2.539.75-6.143-.036-10.118l6.857-2.54c-.15 5.055-2.7 9.732-6.821 12.658z" fill="#FFD43B"/><path fill="#C2C7D1" d="M323 220h18v186h-18z"/><path opacity=".3" fill="#193154" d="M338 220h3v186h-3z"/><path fill="#C2C7D1" d="M457 220h18v186h-18z"/><path opacity=".3" fill="#193154" d="M472 220h3v186h-3z"/><path d="M312.996 220C312.732 237 299 250.732 282 250.996V236c0-8.837 7.163-16 16-16h14.996zM513.996 250.996C496.996 250.732 483.265 237 483 220h39c8.837 0 16 7.163 16 16v15h-24l-.004-.006v.002zM513.996 375.004C496.996 375.268 483.265 389 483 406h39c8.837 0 16-7.163 16-16v-15h-24l-.004.006v-.002zM312.996 405.996C312.732 388.996 299 375.265 282 375v14.996c0 8.837 7.163 16 16 16h14.996z" fill="#FAB005"/><path opacity=".3" d="M498 406h24c8.837 0 16-7.163 16-16V236c0-8.837-7.163-16-16-16h-24c8.837 0 16 7.163 16 16v154c0 8.837-7.163 16-16 16z" fill="#193154"/><path d="M30.36 550h49.07c3.341 0 6.265-2.518 6.682-6.085L91.75 460h-73.5l5.429 83.915c.418 3.567 3.34 6.085 6.682 6.085z" fill="#1C7ED6"/><path d="M94 448h-3l-4.5-8.625A5.769 5.769 0 0 0 81.25 436H28.562a5.769 5.769 0 0 0-5.25 3.375L19 448h-3c-1.688 0-3 1.5-3 3v6c0 1.688 1.313 3 3 3h78c1.5 0 3-1.312 3-3v-6c0-1.5-1.5-3-3-3z" fill="#193154"/><path d="M79 496.75c0 13.312-10.781 24-24 24-13.313 0-24-10.688-24-24 0-13.219 10.688-24 24-24 13.219 0 24 10.781 24 24z" fill="#fff"/><path d="M16.926 487.167A3 3 0 0 1 19.922 484h70.037a3 3 0 0 1 2.987 3.277l-3.269 35.25a3 3 0 0 1-2.987 2.723H21.883a3 3 0 0 1-2.996-2.833l-1.96-35.25z" fill="#74C0FC"/><path opacity=".5" d="M23.5 505H46M22.75 493h22.5M24.25 517h22.5" stroke="#1C7ED6" stroke-width="1.5" stroke-linecap="round"/><path opacity=".5" fill-rule="evenodd" clip-rule="evenodd" d="M79 448h3c1.5 0 3 1.5 3 3v6c0 1.688-1.5 3-3 3h-2.25l-1.612 24.005a3 3 0 0 1 2.808 3.272l-3.268 35.25a3 3 0 0 1-2.306 2.645l-1.26 18.743c-.417 3.567-3.34 6.085-6.681 6.085h12c3.34 0 6.264-2.518 6.681-6.085l1.26-18.743a3 3 0 0 0 2.306-2.645l3.268-35.25a3 3 0 0 0-2.808-3.272L91.75 460H94c1.5 0 3-1.312 3-3v-6c0-1.5-1.5-3-3-3h-3l-4.5-8.625A5.769 5.769 0 0 0 81.25 436h-12a5.769 5.769 0 0 1 5.25 3.375L79 448z" fill="#193154"/><path d="M30.36 550h49.07c3.341 0 6.265-2.518 6.682-6.085L91.75 460h-73.5l5.429 83.915c.418 3.567 3.34 6.085 6.682 6.085z" fill="#1C7ED6"/><path d="M94 448h-3l-4.5-8.625A5.769 5.769 0 0 0 81.25 436H28.562a5.769 5.769 0 0 0-5.25 3.375L19 448h-3c-1.688 0-3 1.5-3 3v6c0 1.688 1.313 3 3 3h78c1.5 0 3-1.312 3-3v-6c0-1.5-1.5-3-3-3z" fill="#193154"/><path d="M79 496.75c0 13.312-10.781 24-24 24-13.313 0-24-10.688-24-24 0-13.219 10.688-24 24-24 13.219 0 24 10.781 24 24z" fill="#fff"/><path d="M16.926 487.167A3 3 0 0 1 19.922 484h70.037a3 3 0 0 1 2.987 3.277l-3.269 35.25a3 3 0 0 1-2.987 2.723H21.883a3 3 0 0 1-2.996-2.833l-1.96-35.25z" fill="#74C0FC"/><path opacity=".5" d="M23.5 505H46M22.75 493h22.5M24.25 517h22.5" stroke="#1C7ED6" stroke-width="1.5" stroke-linecap="round"/><path opacity=".5" fill-rule="evenodd" clip-rule="evenodd" d="M79 448h3c1.5 0 3 1.5 3 3v6c0 1.688-1.5 3-3 3h-2.25l-1.612 24.005a3 3 0 0 1 2.808 3.272l-3.268 35.25a3 3 0 0 1-2.306 2.645l-1.26 18.743c-.417 3.567-3.34 6.085-6.681 6.085h12c3.34 0 6.264-2.518 6.681-6.085l1.26-18.743a3 3 0 0 0 2.306-2.645l3.268-35.25a3 3 0 0 0-2.808-3.272L91.75 460H94c1.5 0 3-1.312 3-3v-6c0-1.5-1.5-3-3-3h-3l-4.5-8.625A5.769 5.769 0 0 0 81.25 436h-12a5.769 5.769 0 0 1 5.25 3.375L79 448z" fill="#193154"/><path d="M111.361 436h49.069c3.341 0 6.265-2.518 6.682-6.085L172.75 346h-73.5l5.429 83.915c.418 3.567 3.341 6.085 6.682 6.085z" fill="#1C7ED6"/><path d="M175 334h-3l-4.5-8.625a5.77 5.77 0 0 0-5.25-3.375h-52.688a5.77 5.77 0 0 0-5.25 3.375L100 334h-3c-1.688 0-3 1.5-3 3v6c0 1.688 1.313 3 3 3h78c1.5 0 3-1.312 3-3v-6c0-1.5-1.5-3-3-3z" fill="#193154"/><path d="M160 382.75c0 13.312-10.781 24-24 24-13.312 0-24-10.688-24-24 0-13.219 10.688-24 24-24 13.219 0 24 10.781 24 24z" fill="#fff"/><path d="M97.926 373.167a3 3 0 0 1 2.996-3.167h70.037a3 3 0 0 1 2.987 3.277l-3.269 35.25a3 3 0 0 1-2.987 2.723h-64.807a3 3 0 0 1-2.996-2.833l-1.96-35.25z" fill="#74C0FC"/><path opacity=".5" d="M104.5 391H127M103.75 379h22.5M105.25 403h22.5" stroke="#1C7ED6" stroke-width="1.5" stroke-linecap="round"/><path opacity=".5" fill-rule="evenodd" clip-rule="evenodd" d="M160 334h3c1.5 0 3 1.5 3 3v6c0 1.688-1.5 3-3 3h-2.25l-1.613 24.005a3 3 0 0 1 2.809 3.272l-3.268 35.25a3 3 0 0 1-2.306 2.645l-1.26 18.743c-.417 3.567-3.34 6.085-6.681 6.085h12c3.341 0 6.264-2.518 6.681-6.085l1.26-18.743a3 3 0 0 0 2.306-2.645l3.268-35.25a3 3 0 0 0-2.809-3.272L172.75 346H175c1.5 0 3-1.312 3-3v-6c0-1.5-1.5-3-3-3h-3l-4.5-8.625a5.768 5.768 0 0 0-5.25-3.375h-12a5.768 5.768 0 0 1 5.25 3.375L160 334z" fill="#193154"/><path d="M121.361 550h49.069c3.341 0 6.265-2.518 6.682-6.085L182.75 460h-73.5l5.429 83.915c.418 3.567 3.341 6.085 6.682 6.085z" fill="#1C7ED6"/><path d="M185 448h-3l-4.5-8.625a5.77 5.77 0 0 0-5.25-3.375h-52.688a5.77 5.77 0 0 0-5.25 3.375L110 448h-3c-1.688 0-3 1.5-3 3v6c0 1.688 1.312 3 3 3h78c1.5 0 3-1.312 3-3v-6c0-1.5-1.5-3-3-3z" fill="#193154"/><path d="M170 496.75c0 13.312-10.781 24-24 24-13.312 0-24-10.688-24-24 0-13.219 10.688-24 24-24 13.219 0 24 10.781 24 24z" fill="#fff"/><path d="M107.926 487.167a3 3 0 0 1 2.996-3.167h70.037a3 3 0 0 1 2.987 3.277l-3.269 35.25a3 3 0 0 1-2.987 2.723h-64.807a3.001 3.001 0 0 1-2.996-2.833l-1.961-35.25z" fill="#74C0FC"/><path opacity=".5" d="M114.5 505H137M113.75 493h22.5M115.25 517h22.5" stroke="#1C7ED6" stroke-width="1.5" stroke-linecap="round"/><path opacity=".5" fill-rule="evenodd" clip-rule="evenodd" d="M170 448h3c1.5 0 3 1.5 3 3v6c0 1.688-1.5 3-3 3h-2.25l-1.613 24.005a3 3 0 0 1 2.809 3.272l-3.268 35.25a3 3 0 0 1-2.306 2.645l-1.26 18.743c-.417 3.567-3.34 6.085-6.681 6.085h12c3.341 0 6.264-2.518 6.681-6.085l1.26-18.743a3 3 0 0 0 2.306-2.645l3.268-35.25a3 3 0 0 0-2.809-3.272L182.75 460H185c1.5 0 3-1.312 3-3v-6c0-1.5-1.5-3-3-3h-3l-4.5-8.625a5.768 5.768 0 0 0-5.25-3.375h-12a5.768 5.768 0 0 1 5.25 3.375L170 448z" fill="#193154"/></g><defs><linearGradient id="paint0_linear_1644_16782" x1="167.353" y1="-57" x2="267.886" y2="166.321" gradientUnits="userSpaceOnUse"><stop stop-color="#fff"/><stop offset="1" stop-color="#fff" stop-opacity="0"/></linearGradient><clipPath id="clip0_1644_16782"><path fill="#fff" d="M0 0h538v550H0z"/></clipPath><clipPath id="clip1_1644_16782"><path d="M274 464c0-5.523 4.477-10 10-10h244c5.523 0 10 4.477 10 10v28c0 5.523-4.477 10-10 10H284c-5.523 0-10-4.477-10-10v-28z" fill="#fff"/></clipPath><clipPath id="clip2_1644_16782"><path d="M249 416c0-5.523 4.477-10 10-10h244c5.523 0 10 4.477 10 10v28c0 5.523-4.477 10-10 10H259c-5.523 0-10-4.477-10-10v-28z" fill="#fff"/></clipPath><clipPath id="clip3_1644_16782"><path d="M258 512c0-5.523 4.477-10 10-10h244c5.523 0 10 4.477 10 10v28c0 5.523-4.477 10-10 10H268c-5.523 0-10-4.477-10-10v-28z" fill="#fff"/></clipPath></defs></svg>